<?xml version="1.0" encoding="UTF-8"?>
<svg width="16px" height="16px" viewBox="0 0 16 16" version="1.1" xmlns="http://www.w3.org/2000/svg" xmlns:xlink="http://www.w3.org/1999/xlink">
    <!-- Generator: Sketch 50 (54983) - http://www.bohemiancoding.com/sketch -->
    <title>文档</title>
    <desc>Created with Sketch.</desc>
    <defs></defs>
    <g id="Page-1" stroke="none" stroke-width="1" fill="none" fill-rule="evenodd">
        <g id="Artboard" transform="translate(-11.000000, -11.000000)" fill="#666666" fill-rule="nonzero">
            <g id="文档" transform="translate(12.000000, 11.000000)">
                <path d="M14.160729,14.0003132 L14.160729,14.0003115 C14.1658912,15.099555 13.2789623,15.9948607 12.1797267,16.000017 C12.1790483,16.0000201 12.1783699,16.000023 12.1776916,16.0000255 L2.25911755,16.0000255 C1.15846306,15.9961664 0.269240147,15.1009697 0.272740151,14.00032 L0.272740151,1.99972793 L0.272740116,1.9997163 C0.269427425,0.899136898 1.15855365,0.00405773186 2.25913305,1.08521498e-05 L10.8778931,1.08521498e-05 L14.2707252,3.5201712 L14.160729,14.0003132 Z M10.1946306,0.999860538 L10.1946306,3.50983221 L10.1946306,3.50983205 C10.1913141,3.77726205 10.4054215,3.99674668 10.6728515,4.00006387 C10.6756431,4.00009849 10.6784349,4.00010897 10.6812266,4.00009531 L13.1708702,4.00010111 L10.1946306,0.999860538 Z M13.1708684,4.99928707 L10.1946306,4.99928707 C9.64482055,4.99800378 9.20015128,4.55125373 9.2014341,4.00144372 C9.20143566,4.00077309 9.2014379,4.00010247 9.20144082,3.99943184 L9.20144082,0.999865851 L2.25910462,0.999865851 C1.70911028,1.00133393 1.26444257,1.448382 1.26590976,1.99837639 C1.26591096,1.99882463 1.26591246,1.99927288 1.26591426,1.99972112 L1.26591426,13.9979851 L1.26591425,13.9979863 C1.26352056,14.5477932 1.70728664,14.9954406 2.25709353,14.9978344 C2.25776415,14.9978373 2.25843477,14.9978395 2.25910539,14.9978411 L12.1776638,14.9978411 C12.7277223,14.9952701 13.1719619,14.5480484 13.1708541,13.9979853 L13.1708541,4.99928728 L13.1708684,4.99928707 Z M10.8478657,11.6593261 L3.12230988,11.6593261 C2.84620799,11.6010927 2.66958904,11.3300601 2.72782348,11.0539582 C2.7695879,10.8559408 2.92429246,10.7012359 3.12230987,10.6594718 L10.8478657,10.6594718 C11.1242442,10.7163803 11.30216,10.9865628 11.2452506,11.2629412 C11.2040776,11.4628993 11.0478238,11.6191541 10.8478657,11.6603261 L10.8478657,11.6593261 Z M10.8478657,9.06936993 L3.12230988,9.06936993 C2.84620799,9.01113658 2.66958904,8.74010392 2.72782348,8.46400204 C2.7695879,8.26598462 2.92429246,8.11127975 3.12230987,8.06951564 L10.8478657,8.06951564 C11.1242442,8.12642414 11.30216,8.39660665 11.2452506,8.67298509 C11.2040776,8.87294314 11.0478238,9.02919801 10.8478657,9.07036993 L10.8478657,9.06936993 Z M7.59500258,6.47941379 L3.12230988,6.47941379 C2.85163764,6.42492528 2.67638587,6.1613306 2.73087499,5.89065841 C2.77061395,5.69325505 2.92490647,5.53896112 3.12231139,5.49922358 L7.59500409,5.49922358 C7.8659529,5.55232209 8.04255467,5.81501458 7.98945617,6.08596333 C7.95037159,6.28540106 7.79444188,6.44133093 7.59500415,6.48041535 L7.59500258,6.47941379 Z" id="Shape"></path>
            </g>
        </g>
    </g>
</svg>